# xmcd
#
# Track frame offsets:
#	150
#	21912
#	38198
#	56532
#	70535
#	85222
#	98437
#	112447
#	126028
#	144069
#	164059
#	177891
#	197846
#	216225
#	231595
#	250960
#	266935
#	288720
#
# Disc length: 4095 seconds
#
# Revision: 0
# Processed by: cddbd v1.4PL0 Copyright (c) Steve Scherf et al.
# Submitted via: dBpowerAMP V4.0
#
DISCID=140ffd12
DTITLE=Gaucha - Luiz Carlos Borges - 40 Anos de Glória
DYEAR=2003
DGENRE=
TTITLE0=Chamamecero
TTITLE1=Solo Livre
TTITLE2=Tristeza Chamamecera
TTITLE3=KM 11
TTITLE4=Pedindo Cancha
TTITLE5=Cacho de Uva
TTITLE6=Beile de Fronteira
TTITLE7=Jogo Duro
TTITLE8=Carito
TTITLE9=Trem Expresso
TTITLE10=Apurate José
TTITLE11=Com Saudade
TTITLE12=Amigos do Tombo
TTITLE13=Viejo Caa Caty
TTITLE14=Suite Para Ana Terra
TTITLE15=O Mundo Muda
TTITLE16=Italiano
TTITLE17=Fogo Simbólico
EXTD=
EXTT0=
EXTT1=
EXTT2=
EXTT3=
EXTT4=
EXTT5=
EXTT6=
EXTT7=
EXTT8=
EXTT9=
EXTT10=
EXTT11=
EXTT12=
EXTT13=
EXTT14=
EXTT15=
EXTT16=
EXTT17=
PLAYORDER=
